# xmcd
#
# Track frame offsets: 
#        150
#        12409
#        22320
#        32661
#        41463
#        53962
#        65405
#        78033
#        87898
#        98085
#        109325
#        119492
#        129116
#        140131
#        148417
#        160114
#        168476
#        178559
#        188510
#        198617
#
# Disc length: 2806 seconds
#
# Revision: 2
# Processed by: cddbd v1.5.2PL0 Copyright (c) Steve Scherf et al.
# Submitted via: ExactAudioCopyFreeDBPlugin 1.0
#
DISCID=170af414
DTITLE=JOHNNY CASH - THE 20 GREATEST HITS
DYEAR=1900
DGENRE=Country
TTITLE0=WALK THE LINE
TTITLE1=ROCK ISLAND LINE
TTITLE2=TRAIN OF LOVE
TTITLE3=KATE TOO
TTITLE4=GIVE MY LOVE TO ROSE
TTITLE5=BIG RIVER
TTITLE6=FOLSON PRISION BLUES
TTITLE7=ON LONE SOME ME
TTITLE8=GOODBYE LITTE DARLING
TTITLE9=BALLAD OF A TEENAGE QUEEN
TTITLE10=I COULD NEVER BE ASHAMED OF YOU
TTITLE11=JUST ABOUT TIME
TTITLE12=CRY CRY CRY
TTITLE13=WRECK OF THE OLD 97
TTITLE14=I`M SO DOGGONE LONESOME
TTITLE15=GUES THINGS HAPPEN THAT WAY
TTITLE16=I WALK THE LINE
TTITLE17=BORN TO LOSE
TTITLE18=THERE YOU GO
TTITLE19=HEY PORTER
EXTD=
EXTT0=
EXTT1=
EXTT2=
EXTT3=
EXTT4=
EXTT5=
EXTT6=
EXTT7=
EXTT8=
EXTT9=
EXTT10=
EXTT11=
EXTT12=
EXTT13=
EXTT14=
EXTT15=
EXTT16=
EXTT17=
EXTT18=
EXTT19=
PLAYORDER=
